STARTFONT 2.1
COMMENT $Id: g016x10.bdf,v 1.2 1995/02/10 17:53:37 pierre Exp $
FONT -Lectra-Minitel-Medium-R-Normal--10-100-75-75-C-160-ISO2022-0
SIZE 10 75 75
FONTBOUNDINGBOX 16 10 0 -2
STARTPROPERTIES 19
FONTNAME_REGISTRY ""
FOUNDRY "Lectra"
FAMILY_NAME "Minitel"
WEIGHT_NAME "Medium"
SLANT "R"
SETWIDTH_NAME "Normal"
ADD_STYLE_NAME ""
PIXEL_SIZE 10
POINT_SIZE 100
RESOLUTION_X 75
RESOLUTION_Y 75
SPACING "C"
AVERAGE_WIDTH 80
CHARSET_REGISTRY "ISO2022-0"
CHARSET_ENCODING "1"
FONT_ASCENT 8
FONT_DESCENT 2
DEFAULT_CHAR 32
COPYRIGHT "Copyright 1991 Lectra-Systemes"
ENDPROPERTIES
CHARS 116
STARTCHAR C000
ENCODING 0
SWIDTH 666 0
DWIDTH 16 0
BBX 16 10 0 -2
BITMAP
0000
0F00
30C0
3000
3000
FF00
3000
3000
FFC0
0000
ENDCHAR
STARTCHAR C001
ENCODING 1
SWIDTH 666 0
DWIDTH 16 0
BBX 16 10 0 -2
BITMAP
0000
0000
0000
0C00
3C00
FFFF
3C00
0C00
0000
0000
ENDCHAR
STARTCHAR C002
ENCODING 2
SWIDTH 666 0
DWIDTH 16 0
BBX 16 10 0 -2
BITMAP
0000
00C0
03F0
0FFC
00C0
00C0
00C0
00C0
00C0
00C0
ENDCHAR
STARTCHAR C003
ENCODING 3
SWIDTH 666 0
DWIDTH 16 0
BBX 16 10 0 -2
BITMAP
0000
0000
0000
0030
003C
FFFF
003C
0030
0000
0000
ENDCHAR
STARTCHAR C004
ENCODING 4
SWIDTH 666 0
DWIDTH 16 0
BBX 16 10 0 -2
BITMAP
0000
00C0
00C0
00C0
00C0
00C0
00C0
0FFC
03F0
00C0
ENDCHAR
STARTCHAR C005
ENCODING 5
SWIDTH 666 0
DWIDTH 16 0
BBX 16 10 0 -2
BITMAP
3C00
C300
C300
3C00
0000
0000
0000
0000
0000
0000
ENDCHAR
STARTCHAR C006
ENCODING 6
SWIDTH 666 0
DWIDTH 16 0
BBX 16 10 0 -2
BITMAP
0000
0000
0C00
0C00
FFC0
0C00
0C00
FFC0
0000
0000
ENDCHAR
STARTCHAR C007
ENCODING 7
SWIDTH 666 0
DWIDTH 16 0
BBX 16 10 0 -2
BITMAP
0000
0000
00C0
0000
3FFF
0000
00C0
0000
0000
0000
ENDCHAR
STARTCHAR C008
ENCODING 8
SWIDTH 666 0
DWIDTH 16 0
BBX 16 10 0 -2
BITMAP
0000
C030
C0C0
C0C0
C30C
C33C
0CCC
0CFF
300C
0000
ENDCHAR
STARTCHAR C009
ENCODING 9
SWIDTH 666 0
DWIDTH 16 0
BBX 16 10 0 -2
BITMAP
0000
C030
C0C0
C0C0
C33C
C3C3
0C0F
0C30
30FF
0000
ENDCHAR
STARTCHAR C010
ENCODING 10
SWIDTH 666 0
DWIDTH 16 0
BBX 16 10 0 -2
BITMAP
0000
FC0C
0C30
3C30
0CCC
FCFC
03CC
03FF
0C0C
0000
ENDCHAR
STARTCHAR C011
ENCODING 11
SWIDTH 666 0
DWIDTH 16 0
BBX 16 10 0 -2
BITMAP
0000
0F00
03C0
0000
0000
0000
0000
0000
0000
0000
ENDCHAR
STARTCHAR C012
ENCODING 12
SWIDTH 666 0
DWIDTH 16 0
BBX 16 10 0 -2
BITMAP
0000
003C
00F0
0000
0000
0000
0000
0000
0000
0000
ENDCHAR
STARTCHAR C013
ENCODING 13
SWIDTH 666 0
DWIDTH 16 0
BBX 16 10 0 -2
BITMAP
0000
03F0
0F3C
0000
0000
0000
0000
0000
0000
0000
ENDCHAR
STARTCHAR C014
ENCODING 14
SWIDTH 666 0
DWIDTH 16 0
BBX 16 10 0 -2
BITMAP
0000
0F3C
0000
0000
0000
0000
0000
0000
0000
0000
ENDCHAR
STARTCHAR C015
ENCODING 15
SWIDTH 666 0
DWIDTH 16 0
BBX 16 10 0 -2
BITMAP
0000
0000
0000
0000
0000
0000
0000
0000
03C0
0FC0
ENDCHAR
STARTCHAR C016
ENCODING 16
SWIDTH 666 0
DWIDTH 16 0
BBX 16 10 0 -2
BITMAP
0000
0FFF
30C0
C0C0
C0FC
C0C0
30C0
0FFF
0000
0000
ENDCHAR
STARTCHAR C017
ENCODING 17
SWIDTH 666 0
DWIDTH 16 0
BBX 16 10 0 -2
BITMAP
0000
0000
0000
3F3F
C0C3
C0FF
C0C0
3F3F
0000
0000
ENDCHAR
STARTCHAR C018
ENCODING 18
SWIDTH 666 0
DWIDTH 16 0
BBX 16 10 0 -2
BITMAP
0000
0F00
30C0
C0C0
C300
CF00
C0F0
CC30
F3C0
0000
ENDCHAR
STARTCHAR C019
ENCODING 19
SWIDTH 666 0
DWIDTH 16 0
BBX 16 10 0 -2
BITMAP
3F00
C0C0
F000
3F00
C0C0
C0C0
3F00
03C0
C0C0
3F00
ENDCHAR
STARTCHAR C032
ENCODING 32
SWIDTH 666 0
DWIDTH 16 0
BBX 16 10 0 -2
BITMAP
0000
0000
0000
0000
0000
0000
0000
0000
0000
0000
ENDCHAR
STARTCHAR C033
ENCODING 33
SWIDTH 666 0
DWIDTH 16 0
BBX 16 10 0 -2
BITMAP
00c0
00c0
00c0
00c0
00c0
00c0
0000
00c0
0000
0000
ENDCHAR
STARTCHAR C034
ENCODING 34
SWIDTH 666 0
DWIDTH 16 0
BBX 16 10 0 -2
BITMAP
0330
0330
0330
0000
0000
0000
0000
0000
0000
0000
ENDCHAR
STARTCHAR C035
ENCODING 35
SWIDTH 666 0
DWIDTH 16 0
BBX 16 10 0 -2
BITMAP
0c30
0c30
3ffc
0c30
0c30
3ffc
0c30
0c30
0000
0000
ENDCHAR
STARTCHAR C036
ENCODING 36
SWIDTH 666 0
DWIDTH 16 0
BBX 16 10 0 -2
BITMAP
0000
00c0
03fc
0cc0
03f0
00cc
0ff0
00c0
0000
0000
ENDCHAR
STARTCHAR C037
ENCODING 37
SWIDTH 666 0
DWIDTH 16 0
BBX 16 10 0 -2
BITMAP
0000
0c0c
3330
0c30
00c0
030c
0333
0c0c
0000
0000
ENDCHAR
STARTCHAR C038
ENCODING 38
SWIDTH 666 0
DWIDTH 16 0
BBX 16 10 0 -2
BITMAP
0000
0fc0
3000
0c00
0f00
30cc
3030
0fcc
0000
0000
ENDCHAR
STARTCHAR C039
ENCODING 39
SWIDTH 666 0
DWIDTH 16 0
BBX 16 10 0 -2
BITMAP
00f0
00c0
0300
0000
0000
0000
0000
0000
0000
0000
ENDCHAR
STARTCHAR C040
ENCODING 40
SWIDTH 666 0
DWIDTH 16 0
BBX 16 10 0 -2
BITMAP
0030
00c0
00c0
0300
0300
0300
00c0
00c0
0030
0000
ENDCHAR
STARTCHAR C041
ENCODING 41
SWIDTH 666 0
DWIDTH 16 0
BBX 16 10 0 -2
BITMAP
0300
00c0
00c0
0030
0030
0030
00c0
00c0
0300
0000
ENDCHAR
STARTCHAR C042
ENCODING 42
SWIDTH 666 0
DWIDTH 16 0
BBX 16 10 0 -2
BITMAP
0000
00c0
00c0
3ccf
03f0
00c0
0330
0c0c
0000
0000
ENDCHAR
STARTCHAR C043
ENCODING 43
SWIDTH 666 0
DWIDTH 16 0
BBX 16 10 0 -2
BITMAP
0000
00c0
00c0
00c0
3fff
00c0
00c0
00c0
0000
0000
ENDCHAR
STARTCHAR C044
ENCODING 44
SWIDTH 666 0
DWIDTH 16 0
BBX 16 10 0 -2
BITMAP
0000
0000
0000
0000
0000
0000
03c0
0300
0c00
0000
ENDCHAR
STARTCHAR C045
ENCODING 45
SWIDTH 666 0
DWIDTH 16 0
BBX 16 10 0 -2
BITMAP
0000
0000
0000
0000
3fff
0000
0000
0000
0000
0000
ENDCHAR
STARTCHAR C046
ENCODING 46
SWIDTH 666 0
DWIDTH 16 0
BBX 16 10 0 -2
BITMAP
0000
0000
0000
0000
0000
0000
03c0
03c0
0000
0000
ENDCHAR
STARTCHAR C047
ENCODING 47
SWIDTH 666 0
DWIDTH 16 0
BBX 16 10 0 -2
BITMAP
0003
000c
0030
0030
00c0
0300
0c00
0c00
3000
c000
ENDCHAR
STARTCHAR C048
ENCODING 48
SWIDTH 666 0
DWIDTH 16 0
BBX 16 10 0 -2
BITMAP
0ff0
300c
300c
300c
300c
300c
300c
0ff0
0000
0000
ENDCHAR
STARTCHAR C049
ENCODING 49
SWIDTH 666 0
DWIDTH 16 0
BBX 16 10 0 -2
BITMAP
00c0
03c0
00c0
00c0
00c0
00c0
00c0
00c0
0000
0000
ENDCHAR
STARTCHAR C050
ENCODING 50
SWIDTH 666 0
DWIDTH 16 0
BBX 16 10 0 -2
BITMAP
0ff0
300c
000c
0030
00c0
0300
0c00
3ffc
0000
0000
ENDCHAR
STARTCHAR C051
ENCODING 51
SWIDTH 666 0
DWIDTH 16 0
BBX 16 10 0 -2
BITMAP
0ff0
300c
000c
03f0
000c
000c
300c
0ff0
0000
0000
ENDCHAR
STARTCHAR C052
ENCODING 52
SWIDTH 666 0
DWIDTH 16 0
BBX 16 10 0 -2
BITMAP
00f0
00f0
0330
0330
0c30
3ffc
0030
00fc
0000
0000
ENDCHAR
STARTCHAR C053
ENCODING 53
SWIDTH 666 0
DWIDTH 16 0
BBX 16 10 0 -2
BITMAP
3ffc
3000
3000
3ff0
000c
000c
300c
0ff0
0000
0000
ENDCHAR
STARTCHAR C054
ENCODING 54
SWIDTH 666 0
DWIDTH 16 0
BBX 16 10 0 -2
BITMAP
03f0
0c00
3000
3ff0
300c
300c
300c
0ff0
0000
0000
ENDCHAR
STARTCHAR C055
ENCODING 55
SWIDTH 666 0
DWIDTH 16 0
BBX 16 10 0 -2
BITMAP
3ffc
300c
0030
0030
00c0
00c0
0300
0300
0000
0000
ENDCHAR
STARTCHAR C056
ENCODING 56
SWIDTH 666 0
DWIDTH 16 0
BBX 16 10 0 -2
BITMAP
0ff0
300c
300c
0ff0
300c
300c
300c
0ff0
0000
0000
ENDCHAR
STARTCHAR C057
ENCODING 57
SWIDTH 666 0
DWIDTH 16 0
BBX 16 10 0 -2
BITMAP
0ff0
300c
300c
300c
0ffc
000c
0030
0fc0
0000
0000
ENDCHAR
STARTCHAR C058
ENCODING 58
SWIDTH 666 0
DWIDTH 16 0
BBX 16 10 0 -2
BITMAP
0000
0000
03c0
03c0
0000
0000
03c0
03c0
0000
0000
ENDCHAR
STARTCHAR C059
ENCODING 59
SWIDTH 666 0
DWIDTH 16 0
BBX 16 10 0 -2
BITMAP
0000
0000
03c0
03c0
0000
0000
03c0
0300
0c00
0000
ENDCHAR
STARTCHAR C060
ENCODING 60
SWIDTH 666 0
DWIDTH 16 0
BBX 16 10 0 -2
BITMAP
0000
0000
003c
03c0
3c00
03c0
003c
0000
0000
0000
ENDCHAR
STARTCHAR C061
ENCODING 61
SWIDTH 666 0
DWIDTH 16 0
BBX 16 10 0 -2
BITMAP
0000
0000
0000
3fff
0000
0000
3fff
0000
0000
0000
ENDCHAR
STARTCHAR C062
ENCODING 62
SWIDTH 666 0
DWIDTH 16 0
BBX 16 10 0 -2
BITMAP
0000
0000
3c00
03c0
003c
03c0
3c00
0000
0000
0000
ENDCHAR
STARTCHAR C063
ENCODING 63
SWIDTH 666 0
DWIDTH 16 0
BBX 16 10 0 -2
BITMAP
0ff0
300c
000c
0030
00c0
00c0
0000
00c0
0000
0000
ENDCHAR
STARTCHAR C064
ENCODING 64
SWIDTH 666 0
DWIDTH 16 0
BBX 16 10 0 -2
BITMAP
0000
03f0
0c0c
30c3
3333
30cc
0c00
03f0
0000
0000
ENDCHAR
STARTCHAR C065
ENCODING 65
SWIDTH 666 0
DWIDTH 16 0
BBX 16 10 0 -2
BITMAP
0000
1ffe
3fff
3003
3003
3fff
3003
3003
0000
0000
ENDCHAR
STARTCHAR C066
ENCODING 66
SWIDTH 666 0
DWIDTH 16 0
BBX 16 10 0 -2
BITMAP
0000
3ffc
3003
3003
3ffc
3003
3003
3ffc
0000
0000
ENDCHAR
STARTCHAR C067
ENCODING 67
SWIDTH 666 0
DWIDTH 16 0
BBX 16 10 0 -2
BITMAP
0000
03fc
0c03
3000
3000
3000
0c03
03fc
0000
0000
ENDCHAR
STARTCHAR C068
ENCODING 68
SWIDTH 666 0
DWIDTH 16 0
BBX 16 10 0 -2
BITMAP
0000
3ff0
300c
3003
3003
3003
300c
3ff0
0000
0000
ENDCHAR
STARTCHAR C069
ENCODING 69
SWIDTH 666 0
DWIDTH 16 0
BBX 16 10 0 -2
BITMAP
0000
3fff
3000
3000
3ff0
3000
3000
3fff
0000
0000
ENDCHAR
STARTCHAR C070
ENCODING 70
SWIDTH 666 0
DWIDTH 16 0
BBX 16 10 0 -2
BITMAP
0000
3fff
3000
3000
3ff0
3000
3000
3000
0000
0000
ENDCHAR
STARTCHAR C071
ENCODING 71
SWIDTH 666 0
DWIDTH 16 0
BBX 16 10 0 -2
BITMAP
0000
03fc
0c03
3000
303f
3003
0c03
03ff
0000
0000
ENDCHAR
STARTCHAR C072
ENCODING 72
SWIDTH 666 0
DWIDTH 16 0
BBX 16 10 0 -2
BITMAP
0000
3003
3003
3003
3fff
3003
3003
3003
0000
0000
ENDCHAR
STARTCHAR C073
ENCODING 73
SWIDTH 666 0
DWIDTH 16 0
BBX 16 10 0 -2
BITMAP
0000
0ffc
00c0
00c0
00c0
00c0
00c0
0ffc
0000
0000
ENDCHAR
STARTCHAR C074
ENCODING 74
SWIDTH 666 0
DWIDTH 16 0
BBX 16 10 0 -2
BITMAP
0000
00fc
000c
000c
000c
300c
300c
0ff0
0000
0000
ENDCHAR
STARTCHAR C075
ENCODING 75
SWIDTH 666 0
DWIDTH 16 0
BBX 16 10 0 -2
BITMAP
0000
300c
3030
30c0
3f00
30c0
3030
300c
0000
0000
ENDCHAR
STARTCHAR C076
ENCODING 76
SWIDTH 666 0
DWIDTH 16 0
BBX 16 10 0 -2
BITMAP
0000
3000
3000
3000
3000
3000
3000
3ffc
0000
0000
ENDCHAR
STARTCHAR C077
ENCODING 77
SWIDTH 666 0
DWIDTH 16 0
BBX 16 10 0 -2
BITMAP
0000
3003
3c0f
3333
30c3
3003
3003
3003
0000
0000
ENDCHAR
STARTCHAR C078
ENCODING 78
SWIDTH 666 0
DWIDTH 16 0
BBX 16 10 0 -2
BITMAP
0000
3003
3c03
3303
30c3
3033
300f
3003
0000
0000
ENDCHAR
STARTCHAR C079
ENCODING 79
SWIDTH 666 0
DWIDTH 16 0
BBX 16 10 0 -2
BITMAP
0000
03f0
0c0c
3003
3003
3003
0c0c
03f0
0000
0000
ENDCHAR
STARTCHAR C080
ENCODING 80
SWIDTH 666 0
DWIDTH 16 0
BBX 16 10 0 -2
BITMAP
0000
3ffc
3003
3003
3ffc
3000
3000
3000
0000
0000
ENDCHAR
STARTCHAR C081
ENCODING 81
SWIDTH 666 0
DWIDTH 16 0
BBX 16 10 0 -2
BITMAP
0000
03f0
0c0c
3003
3003
3003
0c0c
03f0
003f
0000
ENDCHAR
STARTCHAR C082
ENCODING 82
SWIDTH 666 0
DWIDTH 16 0
BBX 16 10 0 -2
BITMAP
0000
3ffc
3003
3003
3ffc
3030
300c
3003
0000
0000
ENDCHAR
STARTCHAR C083
ENCODING 83
SWIDTH 666 0
DWIDTH 16 0
BBX 16 10 0 -2
BITMAP
0000
0ffc
3003
3000
0ffc
0003
3003
0ffc
0000
0000
ENDCHAR
STARTCHAR C084
ENCODING 84
SWIDTH 666 0
DWIDTH 16 0
BBX 16 10 0 -2
BITMAP
0000
3fff
00c0
00c0
00c0
00c0
00c0
00c0
0000
0000
ENDCHAR
STARTCHAR C085
ENCODING 85
SWIDTH 666 0
DWIDTH 16 0
BBX 16 10 0 -2
BITMAP
0000
3003
3003
3003
3003
3003
3003
0ffc
0000
0000
ENDCHAR
STARTCHAR C086
ENCODING 86
SWIDTH 666 0
DWIDTH 16 0
BBX 16 10 0 -2
BITMAP
0000
3c0f
0c0c
0c0c
0330
0330
00c0
00c0
0000
0000
ENDCHAR
STARTCHAR C087
ENCODING 87
SWIDTH 666 0
DWIDTH 16 0
BBX 16 10 0 -2
BITMAP
0000
3003
3003
3003
30c3
3333
3c0f
3003
0000
0000
ENDCHAR
STARTCHAR C088
ENCODING 88
SWIDTH 666 0
DWIDTH 16 0
BBX 16 10 0 -2
BITMAP
0000
3003
0c0c
0330
00c0
0330
0c0c
3003
0000
0000
ENDCHAR
STARTCHAR C089
ENCODING 89
SWIDTH 666 0
DWIDTH 16 0
BBX 16 10 0 -2
BITMAP
0000
3003
0c0c
0330
00c0
00c0
00c0
00c0
0000
0000
ENDCHAR
STARTCHAR C090
ENCODING 90
SWIDTH 666 0
DWIDTH 16 0
BBX 16 10 0 -2
BITMAP
0000
3fff
000c
0030
00c0
0300
0c00
3fff
0000
0000
ENDCHAR
STARTCHAR C091
ENCODING 91
SWIDTH 666 0
DWIDTH 16 0
BBX 16 10 0 -2
BITMAP
00fc
00c0
00c0
00c0
00c0
00c0
00c0
00c0
00fc
0000
ENDCHAR
STARTCHAR C092
ENCODING 92
SWIDTH 666 0
DWIDTH 16 0
BBX 16 10 0 -2
BITMAP
c000
3000
0c00
0c00
0300
00c0
0030
0030
000c
0003
ENDCHAR
STARTCHAR C093
ENCODING 93
SWIDTH 666 0
DWIDTH 16 0
BBX 16 10 0 -2
BITMAP
0fc0
00c0
00c0
00c0
00c0
00c0
00c0
00c0
0fc0
0000
ENDCHAR
STARTCHAR C094
ENCODING 94
SWIDTH 666 0
DWIDTH 16 0
BBX 16 10 0 -2
BITMAP
00c0
0330
0c0c
0000
0000
0000
0000
0000
0000
0000
ENDCHAR
STARTCHAR C095
ENCODING 95
SWIDTH 666 0
DWIDTH 16 0
BBX 16 10 0 -2
BITMAP
0000
0000
0000
0000
0000
0000
0000
0000
0000
ffff
ENDCHAR
STARTCHAR C096
ENCODING 96
SWIDTH 666 0
DWIDTH 16 0
BBX 16 10 0 -2
BITMAP
0000
0000
0000
0000
0000
ffff
0000
0000
0000
0000
ENDCHAR
STARTCHAR C097
ENCODING 97
SWIDTH 666 0
DWIDTH 16 0
BBX 16 10 0 -2
BITMAP
0000
0000
0000
0fff
3003
3003
300f
0ff3
0000
0000
ENDCHAR
STARTCHAR C098
ENCODING 98
SWIDTH 666 0
DWIDTH 16 0
BBX 16 10 0 -2
BITMAP
3000
3000
3000
3ffc
3003
3003
3003
3ffc
0000
0000
ENDCHAR
STARTCHAR C099
ENCODING 99
SWIDTH 666 0
DWIDTH 16 0
BBX 16 10 0 -2
BITMAP
0000
0000
0000
0ffc
3000
3000
3000
0ffc
0000
0000
ENDCHAR
STARTCHAR C100
ENCODING 100
SWIDTH 666 0
DWIDTH 16 0
BBX 16 10 0 -2
BITMAP
0003
0003
0003
0fff
3003
3003
3003
0fff
0000
0000
ENDCHAR
STARTCHAR C101
ENCODING 101
SWIDTH 666 0
DWIDTH 16 0
BBX 16 10 0 -2
BITMAP
0000
0000
0000
0ffc
3003
3fff
3000
0ffc
0000
0000
ENDCHAR
STARTCHAR C102
ENCODING 102
SWIDTH 666 0
DWIDTH 16 0
BBX 16 10 0 -2
BITMAP
03fc
0c00
0c00
3fc0
0c00
0c00
0c00
0c00
0000
0000
ENDCHAR
STARTCHAR C103
ENCODING 103
SWIDTH 666 0
DWIDTH 16 0
BBX 16 10 0 -2
BITMAP
0000
0000
0000
0fff
3003
3003
3003
0fff
0003
0ffc
ENDCHAR
STARTCHAR C104
ENCODING 104
SWIDTH 666 0
DWIDTH 16 0
BBX 16 10 0 -2
BITMAP
3000
3000
3000
3ffc
3003
3003
3003
3003
0000
0000
ENDCHAR
STARTCHAR C105
ENCODING 105
SWIDTH 666 0
DWIDTH 16 0
BBX 16 10 0 -2
BITMAP
00c0
00c0
0000
0fc0
00c0
00c0
00c0
0ffc
0000
0000
ENDCHAR
STARTCHAR C106
ENCODING 106
SWIDTH 666 0
DWIDTH 16 0
BBX 16 10 0 -2
BITMAP
000c
000c
0000
03fc
000c
000c
000c
000c
000c
0ff0
ENDCHAR
STARTCHAR C107
ENCODING 107
SWIDTH 666 0
DWIDTH 16 0
BBX 16 10 0 -2
BITMAP
3000
3000
3000
303c
30c0
3f00
30c0
303c
0000
0000
ENDCHAR
STARTCHAR C108
ENCODING 108
SWIDTH 666 0
DWIDTH 16 0
BBX 16 10 0 -2
BITMAP
03c0
00c0
00c0
00c0
00c0
00c0
00c0
03f0
0000
0000
ENDCHAR
STARTCHAR C109
ENCODING 109
SWIDTH 666 0
DWIDTH 16 0
BBX 16 10 0 -2
BITMAP
0000
0000
0000
3f3c
30c3
30c3
30c3
3003
0000
0000
ENDCHAR
STARTCHAR C110
ENCODING 110
SWIDTH 666 0
DWIDTH 16 0
BBX 16 10 0 -2
BITMAP
0000
0000
0000
33fc
3c03
3003
3003
3003
0000
0000
ENDCHAR
STARTCHAR C111
ENCODING 111
SWIDTH 666 0
DWIDTH 16 0
BBX 16 10 0 -2
BITMAP
0000
0000
0000
0ffc
3003
3003
3003
0ffc
0000
0000
ENDCHAR
STARTCHAR C112
ENCODING 112
SWIDTH 666 0
DWIDTH 16 0
BBX 16 10 0 -2
BITMAP
0000
0000
0000
3ffc
3003
3003
3003
3ffc
3000
3000
ENDCHAR
STARTCHAR C113
ENCODING 113
SWIDTH 666 0
DWIDTH 16 0
BBX 16 10 0 -2
BITMAP
0000
0000
0000
0fff
3003
3003
3003
0fff
0003
0003
ENDCHAR
STARTCHAR C114
ENCODING 114
SWIDTH 666 0
DWIDTH 16 0
BBX 16 10 0 -2
BITMAP
0000
0000
0000
0cfc
0f00
0c00
0c00
0c00
0000
0000
ENDCHAR
STARTCHAR C115
ENCODING 115
SWIDTH 666 0
DWIDTH 16 0
BBX 16 10 0 -2
BITMAP
0000
0000
0000
0ffc
3000
0ff0
000c
3ff0
0000
0000
ENDCHAR
STARTCHAR C116
ENCODING 116
SWIDTH 666 0
DWIDTH 16 0
BBX 16 10 0 -2
BITMAP
0300
0300
0300
3ffc
0300
0300
0300
00fc
0000
0000
ENDCHAR
STARTCHAR C117
ENCODING 117
SWIDTH 666 0
DWIDTH 16 0
BBX 16 10 0 -2
BITMAP
0000
0000
0000
3003
3003
3003
300f
0ff3
0000
0000
ENDCHAR
STARTCHAR C118
ENCODING 118
SWIDTH 666 0
DWIDTH 16 0
BBX 16 10 0 -2
BITMAP
0000
0000
0000
3c0f
0c0c
0330
0330
00c0
0000
0000
ENDCHAR
STARTCHAR C119
ENCODING 119
SWIDTH 666 0
DWIDTH 16 0
BBX 16 10 0 -2
BITMAP
0000
0000
0000
3003
30c3
30c3
30c3
0f3c
0000
0000
ENDCHAR
STARTCHAR C120
ENCODING 120
SWIDTH 666 0
DWIDTH 16 0
BBX 16 10 0 -2
BITMAP
0000
0000
0000
3c0f
0330
00c0
0330
3c0f
0000
0000
ENDCHAR
STARTCHAR C121
ENCODING 121
SWIDTH 666 0
DWIDTH 16 0
BBX 16 10 0 -2
BITMAP
0000
0000
0000
300c
300c
300c
300c
0ffc
000c
0ff0
ENDCHAR
STARTCHAR C122
ENCODING 122
SWIDTH 666 0
DWIDTH 16 0
BBX 16 10 0 -2
BITMAP
0000
0000
0000
3ffc
0030
03c0
0c00
3ffc
0000
0000
ENDCHAR
STARTCHAR C123
ENCODING 123
SWIDTH 666 0
DWIDTH 16 0
BBX 16 10 0 -2
BITMAP
c000
c000
c000
c000
c000
c000
c000
c000
c000
c000
ENDCHAR
STARTCHAR C124
ENCODING 124
SWIDTH 666 0
DWIDTH 16 0
BBX 16 10 0 -2
BITMAP
00c0
00c0
00c0
00c0
00c0
00c0
00c0
00c0
00c0
00c0
ENDCHAR
STARTCHAR C125
ENCODING 125
SWIDTH 666 0
DWIDTH 16 0
BBX 16 10 0 -2
BITMAP
0003
0003
0003
0003
0003
0003
0003
0003
0003
0003
ENDCHAR
STARTCHAR C126
ENCODING 126
SWIDTH 666 0
DWIDTH 16 0
BBX 16 10 0 -2
BITMAP
ffff
0000
0000
0000
0000
0000
0000
0000
0000
0000
ENDCHAR
STARTCHAR C127
ENCODING 127
SWIDTH 666 0
DWIDTH 16 0
BBX 16 10 0 -2
BITMAP
ffff
ffff
ffff
ffff
ffff
ffff
ffff
ffff
ffff
ffff
ENDCHAR
ENDFONT
